<svg xmlns="http://www.w3.org/2000/svg" width="33" height="33" viewBox="0 0 33 33" fill="none"><path d="M5.97585 26.9701C5.76874 26.9701 5.58552 26.921 5.42619 26.8227C5.26687 26.7246 5.14296 26.5949 5.05445 26.4338C4.95886 26.2754 4.90575 26.1042 4.89513 25.9201C4.88627 25.7351 4.9385 25.5488 5.05179 25.3611L15.5006 7.33905C15.6139 7.15143 15.7502 7.01514 15.9095 6.93017C16.0688 6.84522 16.2424 6.80273 16.43 6.80273C16.6176 6.80273 16.7906 6.84522 16.9491 6.93017C17.1075 7.01514 17.2438 7.15143 17.358 7.33905L27.8082 25.3611C27.9214 25.5488 27.9732 25.7347 27.9635 25.9187C27.9547 26.1046 27.9015 26.2763 27.8042 26.4338C27.7157 26.5949 27.5917 26.7246 27.4324 26.8227C27.2731 26.921 27.0904 26.9701 26.8841 26.9701H5.97585ZM16.43 23.8054C16.6619 23.8054 16.8562 23.727 17.0128 23.5704C17.1695 23.4137 17.2474 23.2195 17.2465 22.9876C17.2456 22.7558 17.1672 22.5619 17.0115 22.4061C16.8558 22.2504 16.6619 22.1717 16.43 22.1699C16.1981 22.1681 16.0042 22.2464 15.8485 22.4048C15.6927 22.5632 15.6144 22.7575 15.6135 22.9876C15.6126 23.2178 15.6909 23.412 15.8485 23.5704C16.006 23.7288 16.1999 23.8072 16.43 23.8054ZM16.43 20.8437C16.6194 20.8437 16.7774 20.78 16.904 20.6525C17.0305 20.5251 17.0939 20.3676 17.0939 20.1799V14.8699C17.0939 14.6815 17.0301 14.5235 16.9027 14.396C16.7752 14.2686 16.6172 14.2054 16.4287 14.2062C16.2401 14.2071 16.0826 14.2704 15.956 14.396C15.8294 14.5217 15.7661 14.6797 15.7661 14.8699V20.1799C15.7661 20.3676 15.8298 20.5251 15.9573 20.6525C16.0848 20.78 16.2428 20.8437 16.4313 20.8437" fill="black"></path></svg>